# xmcd CD database file
#
# Track frame offsets:
#	150
#	17376
#	34190
#	47890
#	66373
#	77899
#	95615
#	111730
#	130163
#	150588
#	172143
#
# Disc length: 2493 seconds
#
# Revision: 0
# Processed by: cddbd v1.5.2PL0 Copyright (c) Steve Scherf et al.
# Submitted via: CDex 2.02
#
DISCID=9609bb0b
DTITLE=Steve Dawson - Rattlesnake Cage
DYEAR=2014
DGENRE=Blues
TTITLE0=Blind Thomas at the Crime Scene
TTITLE1=Flophouse Oratory
TTITLE2=The Medicine Show Comes to Avalon
TTITLE3=Rattlesnake Cage
TTITLE4=Lighthouse Avenue
TTITLE5=Butterfly Stunt
TTITLE6=While the West was Won, the Earth Didn't Know It
TTITLE7=J. R. Lockley's Dilemma
TTITLE8=The Flagpole Skater Laughs from Above
TTITLE9=Chunky
TTITLE10=The Altar at Center Raven
EXTD=YEAR: 2014
EXTT0=
EXTT1=
EXTT2=
EXTT3=
EXTT4=
EXTT5=
EXTT6=
EXTT7=
EXTT8=
EXTT9=
EXTT10=
PLAYORDER=
